<mxfile host="app.diagrams.net" agent="Mozilla/5.0 (Macintosh; Intel Mac OS X 10_15_7) AppleWebKit/537.36 (KHTML, like Gecko) Chrome/128.0.0.0 Safari/537.36" version="28.0.3">
  <diagram name="Page-1" id="k3DbXePWlOceQ9xx1HbZ">
    <mxGraphModel dx="1358" dy="752" grid="0" gridSize="10" guides="1" tooltips="1" connect="1" arrows="1" fold="1" page="0" pageScale="1" pageWidth="827" pageHeight="1169" math="0" shadow="0">
      <root>
        <mxCell id="0" />
        <mxCell id="1" parent="0" />
        <mxCell id="hLDjwyZq5HZMQ2KMxdSn-28" value="kubectl" style="rounded=1;whiteSpace=wrap;html=1;" vertex="1" parent="1">
          <mxGeometry x="360" y="60" width="70" height="30" as="geometry" />
        </mxCell>
        <mxCell id="hLDjwyZq5HZMQ2KMxdSn-29" value="" style="endArrow=classic;html=1;rounded=0;exitX=0;exitY=0.5;exitDx=0;exitDy=0;entryX=0.5;entryY=0;entryDx=0;entryDy=0;entryPerimeter=0;" edge="1" parent="1" source="hLDjwyZq5HZMQ2KMxdSn-28" target="hLDjwyZq5HZMQ2KMxdSn-1">
          <mxGeometry width="50" height="50" relative="1" as="geometry">
            <mxPoint x="390" y="270" as="sourcePoint" />
            <mxPoint x="440" y="220" as="targetPoint" />
            <Array as="points">
              <mxPoint x="275" y="75" />
            </Array>
          </mxGeometry>
        </mxCell>
        <mxCell id="hLDjwyZq5HZMQ2KMxdSn-37" value="" style="group" vertex="1" connectable="0" parent="1">
          <mxGeometry x="230" y="460" width="140" height="90" as="geometry" />
        </mxCell>
        <mxCell id="hLDjwyZq5HZMQ2KMxdSn-34" value="" style="aspect=fixed;sketch=0;html=1;dashed=0;whitespace=wrap;verticalLabelPosition=bottom;verticalAlign=top;fillColor=#2875E2;strokeColor=#ffffff;points=[[0.005,0.63,0],[0.1,0.2,0],[0.9,0.2,0],[0.5,0,0],[0.995,0.63,0],[0.72,0.99,0],[0.5,1,0],[0.28,0.99,0]];shape=mxgraph.kubernetes.icon2;kubernetesLabel=1;prIcon=svc" vertex="1" parent="hLDjwyZq5HZMQ2KMxdSn-37">
          <mxGeometry width="50" height="48" as="geometry" />
        </mxCell>
        <mxCell id="hLDjwyZq5HZMQ2KMxdSn-35" value="" style="aspect=fixed;sketch=0;html=1;dashed=0;whitespace=wrap;verticalLabelPosition=bottom;verticalAlign=top;fillColor=#2875E2;strokeColor=#ffffff;points=[[0.005,0.63,0],[0.1,0.2,0],[0.9,0.2,0],[0.5,0,0],[0.995,0.63,0],[0.72,0.99,0],[0.5,1,0],[0.28,0.99,0]];shape=mxgraph.kubernetes.icon2;prIcon=pod" vertex="1" parent="hLDjwyZq5HZMQ2KMxdSn-37">
          <mxGeometry x="80" width="50" height="48" as="geometry" />
        </mxCell>
        <mxCell id="hLDjwyZq5HZMQ2KMxdSn-36" value="Ingress Controller" style="text;html=1;align=center;verticalAlign=middle;whiteSpace=wrap;rounded=0;" vertex="1" parent="hLDjwyZq5HZMQ2KMxdSn-37">
          <mxGeometry y="50" width="130" height="30" as="geometry" />
        </mxCell>
        <mxCell id="hLDjwyZq5HZMQ2KMxdSn-104" value="" style="rounded=0;whiteSpace=wrap;html=1;fillColor=none;" vertex="1" parent="hLDjwyZq5HZMQ2KMxdSn-37">
          <mxGeometry x="-10" y="-12" width="150" height="102" as="geometry" />
        </mxCell>
        <mxCell id="hLDjwyZq5HZMQ2KMxdSn-111" value="&lt;font style=&quot;font-size: 14px; color: rgb(255, 0, 0);&quot;&gt;/users&lt;/font&gt;" style="text;html=1;align=center;verticalAlign=middle;whiteSpace=wrap;rounded=0;" vertex="1" parent="1">
          <mxGeometry x="400" y="410" width="60" height="25" as="geometry" />
        </mxCell>
        <mxCell id="hLDjwyZq5HZMQ2KMxdSn-112" value="&lt;font style=&quot;font-size: 14px; color: rgb(0, 0, 255);&quot;&gt;/products&lt;/font&gt;" style="text;html=1;align=center;verticalAlign=middle;whiteSpace=wrap;rounded=0;" vertex="1" parent="1">
          <mxGeometry x="400" y="510" width="60" height="25" as="geometry" />
        </mxCell>
        <mxCell id="hLDjwyZq5HZMQ2KMxdSn-110" value="" style="endArrow=classic;html=1;rounded=0;exitX=1;exitY=0.5;exitDx=0;exitDy=0;strokeColor=#3333FF;strokeWidth=3;" edge="1" parent="1" source="hLDjwyZq5HZMQ2KMxdSn-104">
          <mxGeometry width="50" height="50" relative="1" as="geometry">
            <mxPoint x="605" y="610" as="sourcePoint" />
            <mxPoint x="660" y="530" as="targetPoint" />
          </mxGeometry>
        </mxCell>
        <mxCell id="hLDjwyZq5HZMQ2KMxdSn-109" value="" style="endArrow=classic;html=1;rounded=0;exitX=1;exitY=0.5;exitDx=0;exitDy=0;fillColor=#f8cecc;strokeColor=#FF0000;strokeWidth=3;entryX=0.005;entryY=0.63;entryDx=0;entryDy=0;entryPerimeter=0;" edge="1" parent="1" source="hLDjwyZq5HZMQ2KMxdSn-104" target="hLDjwyZq5HZMQ2KMxdSn-38">
          <mxGeometry width="50" height="50" relative="1" as="geometry">
            <mxPoint x="590" y="490" as="sourcePoint" />
            <mxPoint x="640" y="440" as="targetPoint" />
          </mxGeometry>
        </mxCell>
        <mxCell id="hLDjwyZq5HZMQ2KMxdSn-116" value="" style="endArrow=classic;startArrow=classic;html=1;rounded=0;entryX=0.995;entryY=0.63;entryDx=0;entryDy=0;entryPerimeter=0;exitX=0;exitY=0.5;exitDx=0;exitDy=0;" edge="1" parent="1" source="hLDjwyZq5HZMQ2KMxdSn-106" target="hLDjwyZq5HZMQ2KMxdSn-1">
          <mxGeometry width="50" height="50" relative="1" as="geometry">
            <mxPoint x="430" y="460" as="sourcePoint" />
            <mxPoint x="480" y="410" as="targetPoint" />
          </mxGeometry>
        </mxCell>
        <mxCell id="hLDjwyZq5HZMQ2KMxdSn-117" value="" style="endArrow=classic;startArrow=classic;html=1;rounded=0;exitX=0;exitY=0.5;exitDx=0;exitDy=0;" edge="1" parent="1" source="hLDjwyZq5HZMQ2KMxdSn-107">
          <mxGeometry width="50" height="50" relative="1" as="geometry">
            <mxPoint x="430" y="460" as="sourcePoint" />
            <mxPoint x="300" y="240" as="targetPoint" />
          </mxGeometry>
        </mxCell>
        <mxCell id="hLDjwyZq5HZMQ2KMxdSn-118" value="users" style="sketch=0;outlineConnect=0;gradientColor=none;fontColor=#545B64;strokeColor=none;fillColor=#879196;dashed=0;verticalLabelPosition=bottom;verticalAlign=top;align=center;html=1;fontSize=12;fontStyle=0;aspect=fixed;shape=mxgraph.aws4.illustration_users;pointerEvents=1" vertex="1" parent="1">
          <mxGeometry x="40" y="460" width="75" height="75" as="geometry" />
        </mxCell>
        <mxCell id="hLDjwyZq5HZMQ2KMxdSn-119" value="" style="endArrow=classic;html=1;rounded=0;entryX=0;entryY=0.5;entryDx=0;entryDy=0;" edge="1" parent="1" target="hLDjwyZq5HZMQ2KMxdSn-104">
          <mxGeometry width="50" height="50" relative="1" as="geometry">
            <mxPoint x="120" y="499" as="sourcePoint" />
            <mxPoint x="480" y="440" as="targetPoint" />
          </mxGeometry>
        </mxCell>
        <mxCell id="hLDjwyZq5HZMQ2KMxdSn-122" value="" style="group" vertex="1" connectable="0" parent="1">
          <mxGeometry x="50" y="82" width="280" height="308" as="geometry" />
        </mxCell>
        <mxCell id="hLDjwyZq5HZMQ2KMxdSn-4" value="" style="group" vertex="1" connectable="0" parent="hLDjwyZq5HZMQ2KMxdSn-122">
          <mxGeometry x="190" y="128" width="70" height="78" as="geometry" />
        </mxCell>
        <mxCell id="hLDjwyZq5HZMQ2KMxdSn-1" value="" style="aspect=fixed;sketch=0;html=1;dashed=0;whitespace=wrap;verticalLabelPosition=bottom;verticalAlign=top;fillColor=#2875E2;strokeColor=#ffffff;points=[[0.005,0.63,0],[0.1,0.2,0],[0.9,0.2,0],[0.5,0,0],[0.995,0.63,0],[0.72,0.99,0],[0.5,1,0],[0.28,0.99,0]];shape=mxgraph.kubernetes.icon2;prIcon=api" vertex="1" parent="hLDjwyZq5HZMQ2KMxdSn-4">
          <mxGeometry x="10" width="50" height="48" as="geometry" />
        </mxCell>
        <mxCell id="hLDjwyZq5HZMQ2KMxdSn-3" value="API Server" style="text;html=1;align=center;verticalAlign=middle;whiteSpace=wrap;rounded=0;" vertex="1" parent="hLDjwyZq5HZMQ2KMxdSn-4">
          <mxGeometry y="43" width="70" height="30" as="geometry" />
        </mxCell>
        <mxCell id="hLDjwyZq5HZMQ2KMxdSn-11" value="" style="group" vertex="1" connectable="0" parent="hLDjwyZq5HZMQ2KMxdSn-122">
          <mxGeometry x="10" y="206" width="70" height="78" as="geometry" />
        </mxCell>
        <mxCell id="hLDjwyZq5HZMQ2KMxdSn-9" value="" style="aspect=fixed;sketch=0;html=1;dashed=0;whitespace=wrap;verticalLabelPosition=bottom;verticalAlign=top;fillColor=#2875E2;strokeColor=#ffffff;points=[[0.005,0.63,0],[0.1,0.2,0],[0.9,0.2,0],[0.5,0,0],[0.995,0.63,0],[0.72,0.99,0],[0.5,1,0],[0.28,0.99,0]];shape=mxgraph.kubernetes.icon2;prIcon=c_m" vertex="1" parent="hLDjwyZq5HZMQ2KMxdSn-11">
          <mxGeometry x="10" width="50" height="48" as="geometry" />
        </mxCell>
        <mxCell id="hLDjwyZq5HZMQ2KMxdSn-10" value="Controller Manager" style="text;html=1;align=center;verticalAlign=middle;whiteSpace=wrap;rounded=0;" vertex="1" parent="hLDjwyZq5HZMQ2KMxdSn-11">
          <mxGeometry y="48" width="70" height="30" as="geometry" />
        </mxCell>
        <mxCell id="hLDjwyZq5HZMQ2KMxdSn-13" value="" style="group" vertex="1" connectable="0" parent="hLDjwyZq5HZMQ2KMxdSn-122">
          <mxGeometry x="10" y="48" width="70" height="78" as="geometry" />
        </mxCell>
        <mxCell id="hLDjwyZq5HZMQ2KMxdSn-7" value="" style="aspect=fixed;sketch=0;html=1;dashed=0;whitespace=wrap;verticalLabelPosition=bottom;verticalAlign=top;fillColor=#2875E2;strokeColor=#ffffff;points=[[0.005,0.63,0],[0.1,0.2,0],[0.9,0.2,0],[0.5,0,0],[0.995,0.63,0],[0.72,0.99,0],[0.5,1,0],[0.28,0.99,0]];shape=mxgraph.kubernetes.icon2;kubernetesLabel=1;prIcon=sched" vertex="1" parent="hLDjwyZq5HZMQ2KMxdSn-13">
          <mxGeometry x="10" width="50" height="48" as="geometry" />
        </mxCell>
        <mxCell id="hLDjwyZq5HZMQ2KMxdSn-8" value="Scheduler" style="text;html=1;align=center;verticalAlign=middle;whiteSpace=wrap;rounded=0;" vertex="1" parent="hLDjwyZq5HZMQ2KMxdSn-13">
          <mxGeometry y="43" width="70" height="30" as="geometry" />
        </mxCell>
        <mxCell id="hLDjwyZq5HZMQ2KMxdSn-14" value="" style="endArrow=classic;startArrow=classic;html=1;rounded=0;entryX=0.995;entryY=0.63;entryDx=0;entryDy=0;entryPerimeter=0;exitX=0.1;exitY=0.2;exitDx=0;exitDy=0;exitPerimeter=0;" edge="1" parent="hLDjwyZq5HZMQ2KMxdSn-122" source="hLDjwyZq5HZMQ2KMxdSn-1" target="hLDjwyZq5HZMQ2KMxdSn-7">
          <mxGeometry width="50" height="50" relative="1" as="geometry">
            <mxPoint x="340" y="188" as="sourcePoint" />
            <mxPoint x="390" y="138" as="targetPoint" />
          </mxGeometry>
        </mxCell>
        <mxCell id="hLDjwyZq5HZMQ2KMxdSn-22" value="" style="group" vertex="1" connectable="0" parent="hLDjwyZq5HZMQ2KMxdSn-122">
          <mxGeometry x="15" y="128" width="60" height="71" as="geometry" />
        </mxCell>
        <mxCell id="hLDjwyZq5HZMQ2KMxdSn-27" value="" style="group" vertex="1" connectable="0" parent="hLDjwyZq5HZMQ2KMxdSn-22">
          <mxGeometry width="60" height="71" as="geometry" />
        </mxCell>
        <mxCell id="hLDjwyZq5HZMQ2KMxdSn-21" value="ETCD" style="text;html=1;align=center;verticalAlign=middle;whiteSpace=wrap;rounded=0;" vertex="1" parent="hLDjwyZq5HZMQ2KMxdSn-27">
          <mxGeometry y="41" width="60" height="30" as="geometry" />
        </mxCell>
        <mxCell id="hLDjwyZq5HZMQ2KMxdSn-26" value="" style="aspect=fixed;sketch=0;html=1;dashed=0;whitespace=wrap;verticalLabelPosition=bottom;verticalAlign=top;fillColor=#2875E2;strokeColor=#ffffff;points=[[0.005,0.63,0],[0.1,0.2,0],[0.9,0.2,0],[0.5,0,0],[0.995,0.63,0],[0.72,0.99,0],[0.5,1,0],[0.28,0.99,0]];shape=mxgraph.kubernetes.icon2;kubernetesLabel=1;prIcon=etcd" vertex="1" parent="hLDjwyZq5HZMQ2KMxdSn-27">
          <mxGeometry x="5" width="50" height="48" as="geometry" />
        </mxCell>
        <mxCell id="hLDjwyZq5HZMQ2KMxdSn-24" value="" style="endArrow=classic;startArrow=classic;html=1;rounded=0;exitX=0.995;exitY=0.63;exitDx=0;exitDy=0;exitPerimeter=0;entryX=0.005;entryY=0.63;entryDx=0;entryDy=0;entryPerimeter=0;" edge="1" parent="hLDjwyZq5HZMQ2KMxdSn-122" target="hLDjwyZq5HZMQ2KMxdSn-1">
          <mxGeometry width="50" height="50" relative="1" as="geometry">
            <mxPoint x="69.75" y="158.24" as="sourcePoint" />
            <mxPoint x="390" y="138" as="targetPoint" />
          </mxGeometry>
        </mxCell>
        <mxCell id="hLDjwyZq5HZMQ2KMxdSn-25" value="" style="endArrow=classic;startArrow=classic;html=1;rounded=0;exitX=0.995;exitY=0.63;exitDx=0;exitDy=0;exitPerimeter=0;entryX=0.25;entryY=0;entryDx=0;entryDy=0;" edge="1" parent="hLDjwyZq5HZMQ2KMxdSn-122" source="hLDjwyZq5HZMQ2KMxdSn-9" target="hLDjwyZq5HZMQ2KMxdSn-3">
          <mxGeometry width="50" height="50" relative="1" as="geometry">
            <mxPoint x="340" y="188" as="sourcePoint" />
            <mxPoint x="390" y="138" as="targetPoint" />
          </mxGeometry>
        </mxCell>
        <mxCell id="hLDjwyZq5HZMQ2KMxdSn-120" value="" style="whiteSpace=wrap;html=1;aspect=fixed;fillColor=none;" vertex="1" parent="hLDjwyZq5HZMQ2KMxdSn-122">
          <mxGeometry y="28" width="280" height="280" as="geometry" />
        </mxCell>
        <mxCell id="hLDjwyZq5HZMQ2KMxdSn-121" value="&lt;b&gt;Control Plane&lt;/b&gt;" style="text;html=1;align=center;verticalAlign=middle;whiteSpace=wrap;rounded=0;strokeColor=default;" vertex="1" parent="hLDjwyZq5HZMQ2KMxdSn-122">
          <mxGeometry width="90" height="28" as="geometry" />
        </mxCell>
        <mxCell id="hLDjwyZq5HZMQ2KMxdSn-123" value="" style="group" vertex="1" connectable="0" parent="1">
          <mxGeometry x="490" y="82" width="400" height="588" as="geometry" />
        </mxCell>
        <mxCell id="hLDjwyZq5HZMQ2KMxdSn-114" value="&lt;b&gt;Worker Node&lt;/b&gt;" style="text;html=1;align=center;verticalAlign=middle;whiteSpace=wrap;rounded=0;strokeColor=default;" vertex="1" parent="hLDjwyZq5HZMQ2KMxdSn-123">
          <mxGeometry width="90" height="28" as="geometry" />
        </mxCell>
        <mxCell id="hLDjwyZq5HZMQ2KMxdSn-92" value="" style="rounded=0;whiteSpace=wrap;html=1;fillColor=none;" vertex="1" parent="hLDjwyZq5HZMQ2KMxdSn-123">
          <mxGeometry x="140" y="348" width="230" height="210" as="geometry" />
        </mxCell>
        <mxCell id="hLDjwyZq5HZMQ2KMxdSn-94" value="" style="aspect=fixed;sketch=0;html=1;dashed=0;whitespace=wrap;verticalLabelPosition=bottom;verticalAlign=top;fillColor=#2875E2;strokeColor=#ffffff;points=[[0.005,0.63,0],[0.1,0.2,0],[0.9,0.2,0],[0.5,0,0],[0.995,0.63,0],[0.72,0.99,0],[0.5,1,0],[0.28,0.99,0]];shape=mxgraph.kubernetes.icon2;kubernetesLabel=1;prIcon=svc" vertex="1" parent="hLDjwyZq5HZMQ2KMxdSn-123">
          <mxGeometry x="175" y="416" width="50" height="48" as="geometry" />
        </mxCell>
        <mxCell id="hLDjwyZq5HZMQ2KMxdSn-95" value="" style="aspect=fixed;sketch=0;html=1;dashed=0;whitespace=wrap;verticalLabelPosition=bottom;verticalAlign=top;fillColor=#2875E2;strokeColor=#ffffff;points=[[0.005,0.63,0],[0.1,0.2,0],[0.9,0.2,0],[0.5,0,0],[0.995,0.63,0],[0.72,0.99,0],[0.5,1,0],[0.28,0.99,0]];shape=mxgraph.kubernetes.icon2;prIcon=pod" vertex="1" parent="hLDjwyZq5HZMQ2KMxdSn-123">
          <mxGeometry x="275" y="466" width="50" height="48" as="geometry" />
        </mxCell>
        <mxCell id="hLDjwyZq5HZMQ2KMxdSn-96" value="" style="aspect=fixed;sketch=0;html=1;dashed=0;whitespace=wrap;verticalLabelPosition=bottom;verticalAlign=top;fillColor=#2875E2;strokeColor=#ffffff;points=[[0.005,0.63,0],[0.1,0.2,0],[0.9,0.2,0],[0.5,0,0],[0.995,0.63,0],[0.72,0.99,0],[0.5,1,0],[0.28,0.99,0]];shape=mxgraph.kubernetes.icon2;prIcon=pod" vertex="1" parent="hLDjwyZq5HZMQ2KMxdSn-123">
          <mxGeometry x="275" y="416" width="50" height="48" as="geometry" />
        </mxCell>
        <mxCell id="hLDjwyZq5HZMQ2KMxdSn-97" value="" style="aspect=fixed;sketch=0;html=1;dashed=0;whitespace=wrap;verticalLabelPosition=bottom;verticalAlign=top;fillColor=#2875E2;strokeColor=#ffffff;points=[[0.005,0.63,0],[0.1,0.2,0],[0.9,0.2,0],[0.5,0,0],[0.995,0.63,0],[0.72,0.99,0],[0.5,1,0],[0.28,0.99,0]];shape=mxgraph.kubernetes.icon2;prIcon=pod" vertex="1" parent="hLDjwyZq5HZMQ2KMxdSn-123">
          <mxGeometry x="275" y="368" width="50" height="48" as="geometry" />
        </mxCell>
        <mxCell id="hLDjwyZq5HZMQ2KMxdSn-98" value="" style="endArrow=classic;html=1;rounded=0;exitX=0.9;exitY=0.2;exitDx=0;exitDy=0;exitPerimeter=0;entryX=0.005;entryY=0.63;entryDx=0;entryDy=0;entryPerimeter=0;" edge="1" parent="hLDjwyZq5HZMQ2KMxdSn-123" source="hLDjwyZq5HZMQ2KMxdSn-94" target="hLDjwyZq5HZMQ2KMxdSn-97">
          <mxGeometry width="50" height="50" relative="1" as="geometry">
            <mxPoint x="105" y="568" as="sourcePoint" />
            <mxPoint x="155" y="518" as="targetPoint" />
          </mxGeometry>
        </mxCell>
        <mxCell id="hLDjwyZq5HZMQ2KMxdSn-99" value="" style="endArrow=classic;html=1;rounded=0;exitX=0.995;exitY=0.63;exitDx=0;exitDy=0;exitPerimeter=0;entryX=0.005;entryY=0.63;entryDx=0;entryDy=0;entryPerimeter=0;" edge="1" parent="hLDjwyZq5HZMQ2KMxdSn-123" source="hLDjwyZq5HZMQ2KMxdSn-94" target="hLDjwyZq5HZMQ2KMxdSn-96">
          <mxGeometry width="50" height="50" relative="1" as="geometry">
            <mxPoint x="105" y="568" as="sourcePoint" />
            <mxPoint x="155" y="518" as="targetPoint" />
          </mxGeometry>
        </mxCell>
        <mxCell id="hLDjwyZq5HZMQ2KMxdSn-100" value="" style="endArrow=classic;html=1;rounded=0;exitX=0.72;exitY=0.99;exitDx=0;exitDy=0;exitPerimeter=0;entryX=0.005;entryY=0.63;entryDx=0;entryDy=0;entryPerimeter=0;" edge="1" parent="hLDjwyZq5HZMQ2KMxdSn-123" source="hLDjwyZq5HZMQ2KMxdSn-94" target="hLDjwyZq5HZMQ2KMxdSn-95">
          <mxGeometry width="50" height="50" relative="1" as="geometry">
            <mxPoint x="105" y="568" as="sourcePoint" />
            <mxPoint x="155" y="518" as="targetPoint" />
          </mxGeometry>
        </mxCell>
        <mxCell id="hLDjwyZq5HZMQ2KMxdSn-101" value="3 Pod Replicas" style="text;html=1;align=center;verticalAlign=middle;whiteSpace=wrap;rounded=0;" vertex="1" parent="hLDjwyZq5HZMQ2KMxdSn-123">
          <mxGeometry x="270" y="514" width="60" height="30" as="geometry" />
        </mxCell>
        <mxCell id="hLDjwyZq5HZMQ2KMxdSn-102" value="ClusterIP" style="text;html=1;align=center;verticalAlign=middle;whiteSpace=wrap;rounded=0;" vertex="1" parent="hLDjwyZq5HZMQ2KMxdSn-123">
          <mxGeometry x="170" y="464" width="60" height="30" as="geometry" />
        </mxCell>
        <mxCell id="hLDjwyZq5HZMQ2KMxdSn-103" value="&lt;b&gt;Products Microservice&lt;/b&gt;" style="text;html=1;align=center;verticalAlign=middle;whiteSpace=wrap;rounded=0;strokeColor=default;" vertex="1" parent="hLDjwyZq5HZMQ2KMxdSn-123">
          <mxGeometry x="140" y="318" width="150" height="30" as="geometry" />
        </mxCell>
        <mxCell id="hLDjwyZq5HZMQ2KMxdSn-75" value="&lt;b&gt;Users Microservice&lt;/b&gt;" style="text;html=1;align=center;verticalAlign=middle;whiteSpace=wrap;rounded=0;strokeColor=default;container=0;" vertex="1" parent="hLDjwyZq5HZMQ2KMxdSn-123">
          <mxGeometry x="140" y="58" width="130" height="30" as="geometry" />
        </mxCell>
        <mxCell id="hLDjwyZq5HZMQ2KMxdSn-105" value="" style="rounded=0;whiteSpace=wrap;html=1;fillColor=none;container=0;" vertex="1" parent="hLDjwyZq5HZMQ2KMxdSn-123">
          <mxGeometry y="28" width="400" height="560" as="geometry" />
        </mxCell>
        <mxCell id="hLDjwyZq5HZMQ2KMxdSn-106" value="kube-proxy" style="rounded=1;whiteSpace=wrap;html=1;container=0;" vertex="1" parent="hLDjwyZq5HZMQ2KMxdSn-123">
          <mxGeometry x="10" y="38" width="90" height="30" as="geometry" />
        </mxCell>
        <mxCell id="hLDjwyZq5HZMQ2KMxdSn-107" value="kubelet" style="rounded=1;whiteSpace=wrap;html=1;container=0;" vertex="1" parent="hLDjwyZq5HZMQ2KMxdSn-123">
          <mxGeometry x="10" y="78" width="90" height="30" as="geometry" />
        </mxCell>
        <mxCell id="hLDjwyZq5HZMQ2KMxdSn-60" value="" style="rounded=0;whiteSpace=wrap;html=1;fillColor=none;" vertex="1" parent="hLDjwyZq5HZMQ2KMxdSn-123">
          <mxGeometry x="140" y="88" width="230" height="210" as="geometry" />
        </mxCell>
        <mxCell id="hLDjwyZq5HZMQ2KMxdSn-48" value="" style="group" vertex="1" connectable="0" parent="hLDjwyZq5HZMQ2KMxdSn-123">
          <mxGeometry x="170" y="108" width="230" height="430" as="geometry" />
        </mxCell>
        <mxCell id="hLDjwyZq5HZMQ2KMxdSn-38" value="" style="aspect=fixed;sketch=0;html=1;dashed=0;whitespace=wrap;verticalLabelPosition=bottom;verticalAlign=top;fillColor=#2875E2;strokeColor=#ffffff;points=[[0.005,0.63,0],[0.1,0.2,0],[0.9,0.2,0],[0.5,0,0],[0.995,0.63,0],[0.72,0.99,0],[0.5,1,0],[0.28,0.99,0]];shape=mxgraph.kubernetes.icon2;kubernetesLabel=1;prIcon=svc" vertex="1" parent="hLDjwyZq5HZMQ2KMxdSn-48">
          <mxGeometry x="5" y="48" width="50" height="48" as="geometry" />
        </mxCell>
        <mxCell id="hLDjwyZq5HZMQ2KMxdSn-39" value="" style="aspect=fixed;sketch=0;html=1;dashed=0;whitespace=wrap;verticalLabelPosition=bottom;verticalAlign=top;fillColor=#2875E2;strokeColor=#ffffff;points=[[0.005,0.63,0],[0.1,0.2,0],[0.9,0.2,0],[0.5,0,0],[0.995,0.63,0],[0.72,0.99,0],[0.5,1,0],[0.28,0.99,0]];shape=mxgraph.kubernetes.icon2;prIcon=pod" vertex="1" parent="hLDjwyZq5HZMQ2KMxdSn-48">
          <mxGeometry x="105" y="98" width="50" height="48" as="geometry" />
        </mxCell>
        <mxCell id="hLDjwyZq5HZMQ2KMxdSn-40" value="" style="aspect=fixed;sketch=0;html=1;dashed=0;whitespace=wrap;verticalLabelPosition=bottom;verticalAlign=top;fillColor=#2875E2;strokeColor=#ffffff;points=[[0.005,0.63,0],[0.1,0.2,0],[0.9,0.2,0],[0.5,0,0],[0.995,0.63,0],[0.72,0.99,0],[0.5,1,0],[0.28,0.99,0]];shape=mxgraph.kubernetes.icon2;prIcon=pod" vertex="1" parent="hLDjwyZq5HZMQ2KMxdSn-48">
          <mxGeometry x="105" y="48" width="50" height="48" as="geometry" />
        </mxCell>
        <mxCell id="hLDjwyZq5HZMQ2KMxdSn-41" value="" style="aspect=fixed;sketch=0;html=1;dashed=0;whitespace=wrap;verticalLabelPosition=bottom;verticalAlign=top;fillColor=#2875E2;strokeColor=#ffffff;points=[[0.005,0.63,0],[0.1,0.2,0],[0.9,0.2,0],[0.5,0,0],[0.995,0.63,0],[0.72,0.99,0],[0.5,1,0],[0.28,0.99,0]];shape=mxgraph.kubernetes.icon2;prIcon=pod" vertex="1" parent="hLDjwyZq5HZMQ2KMxdSn-48">
          <mxGeometry x="105" width="50" height="48" as="geometry" />
        </mxCell>
        <mxCell id="hLDjwyZq5HZMQ2KMxdSn-42" value="" style="endArrow=classic;html=1;rounded=0;exitX=0.9;exitY=0.2;exitDx=0;exitDy=0;exitPerimeter=0;entryX=0.005;entryY=0.63;entryDx=0;entryDy=0;entryPerimeter=0;" edge="1" parent="hLDjwyZq5HZMQ2KMxdSn-48" source="hLDjwyZq5HZMQ2KMxdSn-38" target="hLDjwyZq5HZMQ2KMxdSn-41">
          <mxGeometry width="50" height="50" relative="1" as="geometry">
            <mxPoint x="-65" y="200" as="sourcePoint" />
            <mxPoint x="-15" y="150" as="targetPoint" />
          </mxGeometry>
        </mxCell>
        <mxCell id="hLDjwyZq5HZMQ2KMxdSn-43" value="" style="endArrow=classic;html=1;rounded=0;exitX=0.995;exitY=0.63;exitDx=0;exitDy=0;exitPerimeter=0;entryX=0.005;entryY=0.63;entryDx=0;entryDy=0;entryPerimeter=0;" edge="1" parent="hLDjwyZq5HZMQ2KMxdSn-48" source="hLDjwyZq5HZMQ2KMxdSn-38" target="hLDjwyZq5HZMQ2KMxdSn-40">
          <mxGeometry width="50" height="50" relative="1" as="geometry">
            <mxPoint x="-65" y="200" as="sourcePoint" />
            <mxPoint x="-15" y="150" as="targetPoint" />
          </mxGeometry>
        </mxCell>
        <mxCell id="hLDjwyZq5HZMQ2KMxdSn-44" value="" style="endArrow=classic;html=1;rounded=0;exitX=0.72;exitY=0.99;exitDx=0;exitDy=0;exitPerimeter=0;entryX=0.005;entryY=0.63;entryDx=0;entryDy=0;entryPerimeter=0;" edge="1" parent="hLDjwyZq5HZMQ2KMxdSn-48" source="hLDjwyZq5HZMQ2KMxdSn-38" target="hLDjwyZq5HZMQ2KMxdSn-39">
          <mxGeometry width="50" height="50" relative="1" as="geometry">
            <mxPoint x="-65" y="200" as="sourcePoint" />
            <mxPoint x="-15" y="150" as="targetPoint" />
          </mxGeometry>
        </mxCell>
        <mxCell id="hLDjwyZq5HZMQ2KMxdSn-45" value="3 Pod Replicas" style="text;html=1;align=center;verticalAlign=middle;whiteSpace=wrap;rounded=0;" vertex="1" parent="hLDjwyZq5HZMQ2KMxdSn-48">
          <mxGeometry x="100" y="146" width="60" height="30" as="geometry" />
        </mxCell>
        <mxCell id="hLDjwyZq5HZMQ2KMxdSn-46" value="ClusterIP" style="text;html=1;align=center;verticalAlign=middle;whiteSpace=wrap;rounded=0;" vertex="1" parent="hLDjwyZq5HZMQ2KMxdSn-48">
          <mxGeometry y="96" width="60" height="30" as="geometry" />
        </mxCell>
        <mxCell id="hLDjwyZq5HZMQ2KMxdSn-126" value="Port 8000" style="text;html=1;align=center;verticalAlign=middle;whiteSpace=wrap;rounded=0;" vertex="1" parent="hLDjwyZq5HZMQ2KMxdSn-48">
          <mxGeometry x="-30" y="-20" width="60" height="30" as="geometry" />
        </mxCell>
        <mxCell id="hLDjwyZq5HZMQ2KMxdSn-127" value="Port 8001" style="text;html=1;align=center;verticalAlign=middle;whiteSpace=wrap;rounded=0;" vertex="1" parent="hLDjwyZq5HZMQ2KMxdSn-123">
          <mxGeometry x="140" y="348" width="60" height="30" as="geometry" />
        </mxCell>
        <mxCell id="hLDjwyZq5HZMQ2KMxdSn-125" value="Port 80&lt;div&gt;curl http://localhost/users&lt;/div&gt;&lt;div&gt;curl http://localhost/products&lt;/div&gt;" style="text;html=1;align=left;verticalAlign=middle;whiteSpace=wrap;rounded=0;" vertex="1" parent="1">
          <mxGeometry x="220" y="562" width="180" height="30" as="geometry" />
        </mxCell>
      </root>
    </mxGraphModel>
  </diagram>
</mxfile>
